<svg xmlns="http://www.w3.org/2000/svg" viewBox="0 0 18 15" width="18" height="15">
	<style>
		tspan { white-space:pre }
		.shp0 { fill: #979797 } 
	</style>
	<path id="" class="shp0" d="M16.62 12.9C16.56 12.97 16.48 13 16.39 13L1.61 13C1.52 13 1.44 12.97 1.38 12.9C1.32 12.84 1.29 12.77 1.29 12.68L1.29 4.96C1.5 5.21 1.73 5.43 1.98 5.63C3.77 7.01 5.2 8.14 6.26 9.02C6.6 9.31 6.88 9.53 7.09 9.7C7.31 9.86 7.6 10.02 7.96 10.18C8.33 10.35 8.67 10.43 8.99 10.43L9 10.43L9.01 10.43C9.33 10.43 9.67 10.35 10.04 10.18C10.4 10.02 10.69 9.86 10.91 9.7C11.12 9.53 11.4 9.31 11.74 9.02C12.8 8.14 14.23 7.01 16.02 5.63C16.27 5.43 16.5 5.21 16.71 4.96L16.71 12.68C16.71 12.77 16.68 12.84 16.62 12.9ZM16.25 3.44C15.94 3.93 15.6 4.31 15.24 4.6C13.95 5.62 12.6 6.68 11.21 7.79C11.17 7.82 11.05 7.92 10.86 8.08C10.66 8.25 10.51 8.37 10.4 8.46C10.28 8.55 10.13 8.65 9.95 8.78C9.76 8.9 9.6 8.99 9.44 9.05C9.29 9.11 9.14 9.14 9.01 9.14L9 9.14L8.99 9.14C8.86 9.14 8.71 9.11 8.56 9.05C8.4 8.99 8.23 8.9 8.05 8.78C7.87 8.65 7.72 8.55 7.6 8.46C7.49 8.37 7.34 8.25 7.14 8.08C6.95 7.92 6.83 7.82 6.79 7.79C5.4 6.68 4.05 5.62 2.76 4.6C1.78 3.83 1.29 2.88 1.29 1.75C1.29 1.66 1.32 1.59 1.38 1.52C1.44 1.46 1.52 1.43 1.61 1.43L16.39 1.43C16.45 1.43 16.49 1.44 16.53 1.45C16.57 1.47 16.6 1.5 16.62 1.53C16.64 1.56 16.66 1.59 16.68 1.62C16.7 1.65 16.71 1.69 16.71 1.75C16.71 1.8 16.71 1.85 16.71 1.88C16.71 1.91 16.71 1.95 16.71 2.01C16.71 2.07 16.71 2.11 16.71 2.12C16.71 2.52 16.56 2.96 16.25 3.44ZM17.53 0.61C17.21 0.3 16.83 0.14 16.39 0.14L1.61 0.14C1.17 0.14 0.79 0.3 0.47 0.61C0.16 0.93 0 1.31 0 1.75L0 12.68C0 13.12 0.16 13.5 0.47 13.81C0.79 14.13 1.17 14.29 1.61 14.29L16.39 14.29C16.83 14.29 17.21 14.13 17.53 13.81C17.84 13.5 18 13.12 18 12.68L18 1.75C18 1.31 17.84 0.93 17.53 0.61Z" />
</svg>