<svg xmlns="http://www.w3.org/2000/svg" viewBox="0 0 30 26" width="30" height="26">
	<style>
		tspan { white-space:pre }
		.shp0 { fill: #979797 } 
	</style>
	<path id="" class="shp0" d="M26.42,4.55c1.33,-0.8 2.23,-1.92 2.69,-3.38c-1.21,0.72 -2.51,1.21 -3.89,1.48c-1.21,-1.29 -2.71,-1.94 -4.48,-1.94c-1.7,0 -3.14,0.6 -4.34,1.79c-1.2,1.2 -1.79,2.64 -1.79,4.34c0,0.46 0.05,0.92 0.15,1.4c-2.5,-0.13 -4.85,-0.76 -7.05,-1.89c-2.19,-1.13 -4.06,-2.64 -5.59,-4.53c-0.56,0.95 -0.83,1.98 -0.83,3.09c0,1.05 0.25,2.02 0.74,2.92c0.49,0.9 1.16,1.63 1.99,2.18c-0.99,-0.04 -1.91,-0.3 -2.77,-0.78v0.08c0,1.48 0.46,2.78 1.39,3.9c0.93,1.12 2.1,1.82 3.52,2.12c-0.53,0.14 -1.07,0.21 -1.61,0.21c-0.35,0 -0.74,-0.03 -1.16,-0.09c0.39,1.23 1.11,2.24 2.16,3.03c1.05,0.79 2.24,1.2 3.57,1.22c-2.23,1.75 -4.76,2.62 -7.61,2.62c-0.54,0 -1.04,-0.03 -1.48,-0.08c2.85,1.83 5.98,2.75 9.41,2.75c2.18,0 4.22,-0.34 6.13,-1.03c1.91,-0.69 3.54,-1.61 4.9,-2.77c1.35,-1.16 2.52,-2.49 3.5,-3.99c0.98,-1.51 1.71,-3.08 2.19,-4.71c0.48,-1.64 0.72,-3.28 0.72,-4.92c0,-0.35 -0.01,-0.62 -0.02,-0.8c1.2,-0.87 2.23,-1.93 3.07,-3.17c-1.18,0.51 -2.35,0.82 -3.53,0.95z" />
</svg>