<svg xmlns="http://www.w3.org/2000/svg" viewBox="0 0 30 35" width="30" height="35">
	<style>
		tspan { white-space:pre }
		.shp0 { fill: #ffffff } 
	</style>
	<path id="" class="shp0" d="M18.11 23.19C17.82 23.19 17.54 23.33 17.26 23.61L17.26 29.32C17.54 29.6 17.82 29.73 18.11 29.73C18.61 29.73 18.85 29.31 18.85 28.46L18.85 24.46C18.85 23.61 18.61 23.19 18.11 23.19L18.11 23.19ZM24.41 23.19C23.84 23.19 23.56 23.62 23.56 24.48L23.56 25.35L25.26 25.35L25.26 24.48C25.26 23.62 24.98 23.19 24.41 23.19ZM6.94 31.14L5.04 31.14L5.04 20.34L3.05 20.34L3.05 18.56L8.97 18.56L8.97 20.34L6.94 20.34L6.94 31.14ZM12.4 30.11C11.72 30.89 11.07 31.27 10.47 31.27C9.88 31.27 9.52 31.04 9.37 30.57C9.26 30.27 9.21 29.8 9.21 29.18L9.21 21.77L10.9 21.77L10.9 28.67C10.9 29.08 10.91 29.3 10.92 29.34C10.96 29.6 11.09 29.73 11.32 29.73C11.66 29.73 12.02 29.47 12.4 28.94L12.4 21.77L14.09 21.77L14.09 31.14L12.4 31.14L12.4 30.11ZM20.37 30.23C20.15 30.92 19.71 31.27 19.02 31.27C18.42 31.27 17.83 30.92 17.26 30.23L17.26 31.14L15.57 31.14L15.57 18.56L17.26 18.56L17.26 22.68C17.8 21.99 18.39 21.65 19.02 21.65C19.71 21.65 20.15 22.01 20.37 22.71C20.48 23.04 20.54 23.67 20.54 24.59L20.54 28.33C20.54 29.25 20.48 29.89 20.37 30.23L20.37 30.23ZM26.92 29.24C26.88 29.58 26.74 29.92 26.52 30.27C26.06 30.94 25.38 31.27 24.47 31.27C23.6 31.27 22.91 30.95 22.42 30.3C22.05 29.84 21.87 29.1 21.87 28.1L21.87 24.82C21.87 23.82 22.05 23.09 22.4 22.62C22.89 21.97 23.57 21.65 24.43 21.65C25.28 21.65 25.95 21.97 26.44 22.62C26.78 23.09 26.95 23.82 26.95 24.82L26.95 26.77L23.56 26.77L23.56 28.43C23.56 29.3 23.85 29.73 24.43 29.73C24.85 29.73 25.1 29.51 25.19 29.05C25.21 28.93 25.23 28.54 25.23 27.89L26.95 27.89L26.95 28.14C26.95 28.76 26.94 29.13 26.92 29.24L26.92 29.24ZM14.6 12.15C14.06 12.15 13.79 11.7 13.79 10.82L13.79 6.83C13.79 5.96 14.06 5.52 14.6 5.52C15.15 5.52 15.42 5.96 15.42 6.83L15.42 10.82C15.42 11.7 15.15 12.15 14.6 12.15ZM28.57 18.43C28.4 17.68 28.04 17.05 27.48 16.55C26.91 16.04 26.26 15.74 25.53 15.66C23.2 15.4 19.69 15.28 15 15.28C10.31 15.28 6.8 15.4 4.49 15.66C3.74 15.74 3.09 16.04 2.54 16.55C1.98 17.05 1.61 17.68 1.43 18.43C1.11 19.89 0.94 22.11 0.94 25.07C0.94 28.08 1.11 30.29 1.43 31.71C1.6 32.45 1.96 33.08 2.53 33.59C3.09 34.09 3.74 34.38 4.47 34.46C6.8 34.72 10.31 34.86 15 34.86C19.69 34.86 23.2 34.72 25.53 34.46C26.26 34.38 26.91 34.09 27.47 33.59C28.02 33.08 28.39 32.45 28.57 31.71C28.89 30.24 29.06 28.03 29.06 25.07C29.06 22.06 28.89 19.84 28.57 18.43L28.57 18.43ZM8.83 5.85L7.49 0.86L5.48 0.86C5.83 1.92 6.24 3.1 6.71 4.41C7.3 6.15 7.69 7.49 7.87 8.43L7.87 13.57L9.76 13.57L9.76 8.43L12.06 0.86L10.12 0.86L8.83 5.85ZM16.61 4.96C16.14 4.31 15.47 3.99 14.6 3.99C13.75 3.99 13.09 4.31 12.61 4.96C12.26 5.42 12.08 6.16 12.08 7.18L12.08 10.5C12.08 11.51 12.26 12.25 12.61 12.73C13.09 13.38 13.75 13.7 14.6 13.7C15.47 13.7 16.14 13.38 16.61 12.73C16.97 12.27 17.14 11.52 17.14 10.5L17.14 7.18C17.14 6.16 16.97 5.42 16.61 4.96L16.61 4.96ZM21.77 4.1L21.77 11.33C21.39 11.87 21.03 12.15 20.69 12.15C20.46 12.15 20.33 12.01 20.29 11.73C20.28 11.7 20.27 11.48 20.27 11.06L20.27 4.1L18.55 4.1L18.55 11.58C18.55 12.22 18.6 12.7 18.7 13C18.86 13.47 19.24 13.7 19.82 13.7C20.45 13.7 21.1 13.31 21.77 12.53L21.77 13.57L23.5 13.57L23.5 4.1L21.77 4.1Z" />
</svg>